<svg width="882" height="896" viewBox="0 0 882 896" fill="none" xmlns="http://www.w3.org/2000/svg">
    <path fill-rule="evenodd" clip-rule="evenodd" d="M178.874 1.62568C138.084 6.85968 100.032 23.6847 70.6678 49.4717C28.3918 86.5967 5.53878 129.693 0.88378 181.072C0.0657799 190.096 -0.152223 266.42 0.0977768 456.554C0.475777 744.677 0.0337811 722.984 6.00678 746.523C19.4758 799.608 56.2838 844.775 108.874 872.75C123.07 880.302 146.007 888.087 165.374 891.927C186.887 896.193 189.066 896.223 449.874 895.823C682.057 895.468 700.103 895.32 709.874 893.686C732.061 889.977 748.873 884.637 768.374 875.106C789.5 864.78 805.05 854.031 820.581 839.018C855.225 805.53 874.67 766.207 879.905 719.054C881.399 705.587 881.423 204.76 879.929 185.554C878.682 169.504 877.733 163.516 874.227 149.554C866.008 116.823 849.308 87.6237 823.979 61.6997C798.247 35.3617 768.659 17.8957 732.374 7.62368C721.581 4.56868 715.877 3.44168 701.438 1.51368C685.799 -0.57432 195.202 -0.46932 178.874 1.62568ZM646.816 61.0667C642 62.4057 639.704 64.2167 638.17 67.8837C636.818 71.1187 636.723 79.3807 637.369 137.554C638.086 202.067 638.059 203.608 636.153 205.959C634.382 208.145 633.901 208.259 630.89 207.209C626.25 205.592 609.458 205.79 602.874 207.539C580.932 213.371 563.82 230.948 560.829 250.727C559.433 259.953 560.703 267.196 565.39 276.739C571.457 289.092 584.19 297.667 600.902 300.652C630.591 305.956 658.841 288.498 665.368 260.814C666.587 255.647 666.847 243.596 666.859 191.804C666.867 157.292 667.211 129.053 667.624 129.051C668.037 129.049 673.324 131.255 679.374 133.953C706.38 145.998 725.797 154.419 730.874 156.288C739.885 159.605 739.59 158.912 740.056 177.856C740.499 195.899 741.051 198.06 745.854 200.544C751.573 203.501 761.382 201.711 763.754 197.277C765.007 194.937 765.075 192.351 764.967 150.881L764.874 115.207L762.406 112.274C759.911 109.309 751.194 105.047 712.874 88.0537C703.092 83.7157 699.899 82.2667 675.374 71.0357C654.787 61.6067 650.39 60.0727 646.816 61.0667ZM210.721 80.0257C191.095 82.5147 168.629 91.1297 150.515 103.113C140.27 109.891 124.847 124.761 117.547 134.899C106.06 150.853 96.7728 171.793 93.2088 189.779C90.8038 201.912 90.8518 225.288 93.3078 238.054C104.868 298.132 149.889 341.671 209.617 350.534C242.489 355.412 279.82 346.889 305.166 328.719C330.871 310.293 348.811 286.357 358.386 257.714C367.541 230.329 367.488 199.092 358.24 171.392C351.682 151.751 341.314 135.362 325.433 119.53C305.737 99.8947 282.764 87.3457 255.789 81.4847C247.193 79.6167 220.707 78.7597 210.721 80.0257ZM236.874 104.579C236.874 104.868 238.445 108.223 240.365 112.036C249.595 130.365 257.353 155.464 259.854 175.09C260.518 180.295 261.233 185.492 261.445 186.637C261.797 188.551 262.565 188.735 270.851 188.891C278.847 189.042 279.875 188.862 279.882 187.308C279.914 180.605 282.375 166.515 284.88 158.694C287.021 152.011 289.685 146.628 294.365 139.529C297.945 134.099 300.874 129.353 300.874 128.98C300.874 127.892 286.911 118.579 280.374 115.307C277.074 113.655 271.072 111.118 267.036 109.669C256.942 106.044 236.874 102.657 236.874 104.579ZM205.874 106.48C194.618 108.978 177.411 116.123 170.995 120.962L168.783 122.631L175.337 127.949C193.694 142.843 207.746 163.993 212.715 184.209C213.656 188.035 214.639 191.19 214.9 191.222C216.509 191.42 237.713 189.804 239.26 189.366C240.941 188.891 241.085 188.112 240.584 182.194C238.81 161.202 229.369 131.149 218.371 111.483C214.464 104.496 214.588 104.546 205.874 106.48ZM144.76 141.334C133.628 153.782 125.027 168.472 120.542 182.696C117.93 190.981 114.231 212.744 115.259 213.773C115.57 214.084 119.548 212.966 124.099 211.289C144.068 203.932 160.931 199.379 181.098 195.902C188.489 194.628 193.874 193.23 193.874 192.587C193.874 186.327 187.385 171.416 180.37 161.554C174.136 152.789 154.667 135.052 151.283 135.055C150.783 135.055 147.847 137.88 144.76 141.334ZM312.845 148.252C305.399 158.532 301.094 171.158 300.639 184.054L300.374 191.554L303.374 191.861C307.528 192.286 328.168 197.541 335.04 199.924C338.156 201.004 340.892 201.702 341.12 201.475C341.347 201.248 341.132 198.022 340.641 194.308C339.47 185.446 334.722 171.342 329.885 162.354C325.468 154.145 318.279 144.054 316.849 144.054C316.32 144.054 314.518 145.943 312.845 148.252ZM262.504 210.304C262.173 211.542 261.895 215.544 261.888 219.198C261.827 248.61 252.643 285.256 238.144 313.935C234.146 321.844 230.874 328.549 230.874 328.834C230.874 329.12 234.83 329.073 239.666 328.729C263.245 327.056 288.14 316.026 306.372 299.174L311.111 294.795L307.066 286.674C296.305 265.074 288.493 242.992 284.32 222.382C282.902 215.379 281.52 209.29 281.249 208.851C280.978 208.413 276.785 208.054 271.932 208.054C263.626 208.054 263.072 208.186 262.504 210.304ZM224.874 210.256C220.199 210.769 216.046 211.51 215.645 211.901C215.244 212.292 214.199 216.391 213.323 221.009C209.723 239.987 202.409 256.912 191.623 271.226C188.428 275.466 179.732 284.757 172.297 291.874L158.781 304.812L162.577 307.738C169.217 312.856 176.538 317.098 184.571 320.482C191.591 323.439 203.72 327.054 206.621 327.054C208.145 327.054 217.02 312.173 222.537 300.368C234.363 275.061 240.124 251.394 241.538 222.304L242.182 209.054L237.778 209.188C235.356 209.261 229.549 209.742 224.874 210.256ZM302.882 214.304C302.896 218.278 308.535 239.467 312.428 250.173C316.378 261.035 323.405 277.054 324.219 277.054C324.48 277.054 326.478 273.792 328.659 269.804C335.316 257.632 339.549 243.982 341.317 228.982L341.974 223.409L334.674 220.646C323.837 216.545 323.074 216.301 314.207 214.09C303.808 211.497 302.872 211.515 302.882 214.304ZM187.874 214.724C159.615 219.216 116.874 233.635 116.874 238.677C116.874 241.764 123.058 258.672 127.07 266.554C130.831 273.942 135.95 281.976 140.749 288.018C142.534 290.266 142.927 290.364 145.228 289.132C149.785 286.693 168.673 268.123 174.595 260.259C184.622 246.943 190.786 232.978 193.335 217.804C194.011 213.779 193.969 213.755 187.874 214.724ZM579.851 369.543C570.225 371.463 555.992 377.107 546.765 382.662C537.259 388.385 523.054 401.369 515.906 410.868C500.828 430.908 492.98 458.88 495.707 482.865C500.631 526.166 530.931 561.391 573.466 573.262C580.315 575.174 583.918 575.475 600.374 575.512C621.3 575.558 628.278 574.328 643.306 567.943C664.907 558.764 684.86 539.954 695.695 518.554C716.277 477.907 707.429 427.124 674.378 396.207C659.914 382.677 644.036 374.365 624.616 370.157C613.248 367.694 590.674 367.384 579.851 369.543ZM279.373 381.554C260.81 384.957 239.523 395.375 226.86 407.257C202.366 430.237 190.156 465.126 194.909 498.554C197.37 515.866 201.982 528.622 210.454 541.554C231.114 573.088 266.889 591.619 303.374 589.686C336.95 587.907 367.638 571.417 385.041 545.805C390.206 538.204 396.217 526.107 398.831 518.054C405.516 497.459 405.467 470.83 398.707 450.054C388.407 418.399 361.06 392.987 327.852 384.21C311.64 379.925 293.639 378.939 279.373 381.554ZM574.874 595.098C528.981 600.686 490.007 623.518 458.134 663.49C455.027 667.386 453.9 671.517 455.751 672.221C457.34 672.824 467.58 689.367 472.673 699.555C478.945 712.103 484.26 727.279 486.981 740.406C488.616 748.294 489.228 755.974 489.729 774.885C490.332 797.644 490.503 799.313 492.374 800.713C494.135 802.031 507.843 802.13 606.874 801.544C668.749 801.177 724.204 800.513 730.106 800.068C746.591 798.825 755.939 793.729 765.49 780.779C773.586 769.801 776.789 757.974 776.838 738.869C776.905 713.409 769.739 691.685 753.505 668.136C747.036 658.75 730.976 641.885 720.462 633.435C697.032 614.605 667.112 601.921 633.374 596.516C621.571 594.625 585.865 593.76 574.874 595.098ZM270.374 607.534C221.784 614.225 177.554 641.906 150.147 682.777C128.904 714.455 117.876 751.127 119.024 786.279C119.336 795.852 119.619 797.247 121.653 799.279L123.932 801.554L297.998 801.424C458.483 801.303 472.193 801.164 473.719 799.639C475.119 798.24 475.426 795.011 475.713 778.696C475.996 762.618 475.705 757.359 473.964 747.109C466.638 703.974 439.871 663.216 401.618 636.949C379.029 621.437 353.359 611.632 324.652 607.552C312.225 605.785 283.14 605.776 270.374 607.534ZM570.353 662.001C567.628 663.105 520.835 711.381 518.624 715.367C515.39 721.198 516.314 723.655 525.337 733.228C540.566 749.385 568.531 777.677 570.35 778.769C577.413 783.006 587.874 775.926 587.874 766.908C587.874 762.505 586.482 760.51 575.419 749.054C557.422 730.417 549.874 721.897 549.874 720.217C549.874 719.28 557.637 710.49 567.124 700.685C576.611 690.88 585.202 681.333 586.214 679.47C591.473 669.792 580.619 657.837 570.353 662.001ZM651.63 663.809C648.581 665.699 645.874 670.596 645.874 674.221C645.874 678.443 649.094 682.552 666.874 701.012C676.499 711.006 684.5 719.726 684.653 720.39C684.807 721.054 676.443 730.362 666.067 741.075C655.692 751.789 646.678 761.537 646.038 762.738C640.909 772.362 651.915 784.062 662.02 779.73C663.89 778.928 672.93 770.604 682.444 760.923C720.388 722.316 719.571 723.381 716.357 716.705C715.522 714.972 703.485 701.958 689.607 687.785L664.374 662.016L659.374 662.062C656.481 662.088 653.217 662.824 651.63 663.809Z" fill="url(#paint0_linear_8_71)"/>
    <defs>
        <linearGradient id="paint0_linear_8_71" x1="881.037" y1="889.082" x2="4.74265e-05" y2="6.90197" gradientUnits="userSpaceOnUse">
            <stop stop-color="#630BE1"/>
            <stop offset="1" stop-color="#E32CFB"/>
        </linearGradient>
    </defs>
</svg>
